<svg xmlns="http://www.w3.org/2000/svg" width="24" height="24" viewBox="0 0 24 24" fill="none" stroke="currentColor" stroke-width="2" stroke-linecap="round" stroke-linejoin="round" class="lucide lucide-plane"><path d="M17.8 19.2 16 11l3.5-3.5C21 6 21.5 4 21 3c-1-.5-3 0-4.5 1.5L13 8 4.8 6.2c-.5-.1-.9.2-1.1.7l-1.2 3.6c-.1.3 0 .7.3.9l6.5 4-2.8 2.8-3.4-.9c-.4-.1-.8.1-1 .5l-1.3 2.1c-.2.3-.1.7.2.9l4.5 2 2-4.5c.2-.3.6-.4.9-.2l2.1 1.3c.4.2.6.6.5 1l-.9 3.4c.2.3.6.4.9.3l3.6-1.2c.5-.2.8-.6.7-1.1z"/></svg>
